<svg width="16" height="16" viewBox="0 0 16 16" fill="none" xmlns="http://www.w3.org/2000/svg">
<rect width="16" height="16" fill="white"/>
<path d="M8.47461 11.2727V4H11.3865C11.9216 4 12.3678 4.07931 12.7253 4.23793C13.0828 4.39654 13.3515 4.61671 13.5314 4.89844C13.7114 5.17779 13.8013 5.49976 13.8013 5.86435C13.8013 6.14844 13.7445 6.3982 13.6309 6.61364C13.5172 6.8267 13.361 7.00189 13.1621 7.1392C12.9656 7.27415 12.7407 7.37003 12.4874 7.42685V7.49787C12.7644 7.50971 13.0236 7.58783 13.2651 7.73224C13.5089 7.87666 13.7066 8.07907 13.8581 8.33949C14.0096 8.59754 14.0854 8.9053 14.0854 9.26278C14.0854 9.64867 13.9895 9.99313 13.7978 10.2962C13.6084 10.5968 13.3278 10.8348 12.9561 11.0099C12.5845 11.1851 12.1264 11.2727 11.5819 11.2727H8.47461ZM10.0123 10.0156H11.2658C11.6943 10.0156 12.0068 9.93395 12.2033 9.7706C12.3998 9.60488 12.498 9.38471 12.498 9.11009C12.498 8.90885 12.4495 8.7313 12.3524 8.57741C12.2554 8.42353 12.1169 8.30279 11.937 8.2152C11.7594 8.1276 11.5475 8.08381 11.3013 8.08381H10.0123V10.0156ZM10.0123 7.04332H11.1522C11.3629 7.04332 11.5499 7.00663 11.7132 6.93324C11.879 6.85748 12.0092 6.75095 12.1039 6.61364C12.2009 6.47633 12.2495 6.31179 12.2495 6.12003C12.2495 5.85724 12.156 5.64536 11.9689 5.48438C11.7843 5.32339 11.5215 5.2429 11.1806 5.2429H10.0123V7.04332Z" fill="black"/>
<path d="M2 11.2727V4H4.86932C5.42093 4 5.89086 4.10535 6.27912 4.31605C6.66738 4.52438 6.96331 4.81439 7.1669 5.18608C7.37287 5.5554 7.47585 5.98153 7.47585 6.46449C7.47585 6.94744 7.37169 7.37358 7.16335 7.7429C6.95502 8.11222 6.65317 8.39986 6.25781 8.60582C5.86482 8.81179 5.38897 8.91477 4.83026 8.91477H3.00142V7.68253H4.58168C4.8776 7.68253 5.12145 7.63163 5.31321 7.52983C5.50734 7.42566 5.65175 7.28243 5.74645 7.10014C5.84351 6.91548 5.89205 6.7036 5.89205 6.46449C5.89205 6.22301 5.84351 6.01231 5.74645 5.83239C5.65175 5.65009 5.50734 5.50923 5.31321 5.4098C5.11908 5.308 4.87287 5.2571 4.57457 5.2571H3.53764V11.2727H2Z" fill="black"/>
</svg>
