<svg width="16" height="16" viewBox="0 0 16 16" fill="none" xmlns="http://www.w3.org/2000/svg">
<rect width="16" height="16" fill="white"/>
<path d="M8.28418 10.8348H8.93044V5.60933H8.28418V5H11.6171C11.9925 5 12.3156 5.04001 12.5865 5.12002C12.8573 5.19388 13.0788 5.29851 13.2512 5.43392C13.4297 5.56933 13.5589 5.72936 13.6389 5.914C13.7251 6.09865 13.7682 6.29868 13.7682 6.5141C13.7682 6.73568 13.7282 6.93264 13.6482 7.10497C13.5743 7.27731 13.4728 7.42503 13.3435 7.54813C13.2143 7.66507 13.0635 7.76355 12.8911 7.84356C12.7249 7.92358 12.5526 7.98205 12.3741 8.01898V8.06514C12.5588 8.08976 12.7496 8.139 12.9465 8.21286C13.1435 8.28671 13.322 8.38827 13.482 8.51752C13.642 8.64678 13.7713 8.8068 13.8697 8.9976C13.9744 9.18225 14.0267 9.40075 14.0267 9.6531C14.0267 10.2255 13.8421 10.6687 13.4728 10.9826C13.1035 11.2903 12.5464 11.4442 11.8017 11.4442H8.28418V10.8348ZM10.4261 10.7887H11.4509C11.7832 10.7887 12.0387 10.7056 12.2172 10.5394C12.4018 10.3732 12.4941 10.1393 12.4941 9.83775V9.40383C12.4941 9.10224 12.4018 8.86835 12.2172 8.70217C12.0387 8.53599 11.7832 8.4529 11.4509 8.4529H10.4261V10.7887ZM10.4261 7.81586H11.2847C11.9186 7.81586 12.2356 7.52351 12.2356 6.93879V6.53257C12.2356 5.94785 11.9186 5.6555 11.2847 5.6555H10.4261V7.81586Z" fill="black"/>
<path d="M2 10.8348H2.64626V5.60933H2V5H5.55445C6.23149 5 6.73619 5.15079 7.06856 5.45238C7.40708 5.74782 7.57634 6.18482 7.57634 6.76338C7.57634 7.34809 7.39477 7.80663 7.03163 8.139C6.66849 8.46521 6.1484 8.62831 5.47136 8.62831H4.1419V10.8348H5.01898V11.4442H2V10.8348ZM4.1419 7.96358H5.05591C5.36981 7.96358 5.61292 7.88972 5.78526 7.74201C5.96375 7.58813 6.053 7.35732 6.053 7.04958V6.57873C6.053 6.27099 5.96375 6.04325 5.78526 5.89554C5.61292 5.74166 5.36981 5.66473 5.05591 5.66473H4.1419V7.96358Z" fill="black"/>
</svg>
