<svg width="16" height="16" viewBox="0 0 16 16" fill="none" xmlns="http://www.w3.org/2000/svg">
<rect width="16" height="16" fill="white"/>
<path d="M8.25977 11.68V5H11.1798C11.6664 5 12.0998 5.05 12.4798 5.15C12.8598 5.24333 13.1598 5.41667 13.3798 5.67C13.6064 5.91667 13.7198 6.27333 13.7198 6.74C13.7198 7.04667 13.6498 7.31667 13.5098 7.55C13.3764 7.78333 13.1831 7.97667 12.9298 8.13C13.2431 8.23667 13.4964 8.41 13.6898 8.65C13.8898 8.89 13.9898 9.21333 13.9898 9.62C13.9898 10.12 13.8764 10.52 13.6498 10.82C13.4298 11.12 13.1164 11.34 12.7098 11.48C12.3031 11.6133 11.8298 11.68 11.2898 11.68H8.25977ZM9.83977 7.64H11.2298C11.4964 7.64 11.7031 7.58 11.8498 7.46C12.0031 7.33333 12.0798 7.16667 12.0798 6.96C12.0798 6.74667 12.0031 6.58333 11.8498 6.47C11.7031 6.35 11.4964 6.29 11.2298 6.29H9.83977V7.64ZM9.83977 10.37H11.2998C11.6398 10.37 11.8931 10.3033 12.0598 10.17C12.2331 10.03 12.3198 9.84333 12.3198 9.61C12.3198 9.37667 12.2331 9.19333 12.0598 9.06C11.8931 8.92667 11.6398 8.86 11.2998 8.86H9.83977V10.37Z" fill="black"/>
<path d="M2 11.68V5H4.57C5.15 5 5.66667 5.06 6.12 5.18C6.58 5.3 6.94 5.51667 7.2 5.83C7.46667 6.14333 7.6 6.59333 7.6 7.18C7.6 7.76 7.46667 8.21 7.2 8.53C6.94 8.84333 6.58 9.06 6.12 9.18C5.66667 9.3 5.15 9.36 4.57 9.36H3.58V11.68H2ZM3.58 8.05H4.62C4.86667 8.05 5.08667 8.02667 5.28 7.98C5.48 7.93333 5.63667 7.84667 5.75 7.72C5.87 7.59333 5.93 7.41333 5.93 7.18C5.93 6.94667 5.87 6.77 5.75 6.65C5.63667 6.52333 5.48 6.44 5.28 6.4C5.08667 6.35333 4.86667 6.33 4.62 6.33H3.58V8.05Z" fill="black"/>
</svg>
