<svg width="16" height="16" viewBox="0 0 16 16" fill="none" xmlns="http://www.w3.org/2000/svg">
<rect width="16" height="16" fill="white"/>
<path d="M8.88379 4H11.6918C12.4788 4 13.0786 4.19102 13.4912 4.57307C13.9115 4.95511 14.1216 5.47469 14.1216 6.1318C14.1216 6.59026 14.007 6.95702 13.7778 7.23209C13.5562 7.49952 13.2353 7.69436 12.815 7.81662V7.88539C13.3117 8.00764 13.6937 8.22158 13.9612 8.52722C14.2362 8.83286 14.3738 9.25692 14.3738 9.79943C14.3738 10.4718 14.1598 11.0067 13.7319 11.404C13.3117 11.8013 12.7195 12 11.9554 12H8.88379V4ZM11.4282 10.7966C11.8408 10.7966 12.1426 10.7278 12.3336 10.5903C12.5247 10.4527 12.6202 10.2006 12.6202 9.83381V9.50143C12.6202 9.13467 12.5247 8.88252 12.3336 8.74499C12.1426 8.60745 11.8408 8.53868 11.4282 8.53868H10.5571V10.7966H11.4282ZM11.2104 7.39255C11.6154 7.39255 11.9096 7.3276 12.093 7.19771C12.2763 7.06017 12.368 6.81566 12.368 6.46418V6.12034C12.368 5.76886 12.2763 5.52818 12.093 5.39828C11.9096 5.26839 11.6154 5.20344 11.2104 5.20344H10.5571V7.39255H11.2104Z" fill="black"/>
<path d="M2 12V4H5.09456C5.48424 4 5.8319 4.06113 6.13754 4.18338C6.44317 4.29799 6.69914 4.46609 6.90544 4.68768C7.11939 4.90926 7.27985 5.17669 7.38682 5.48997C7.49379 5.80325 7.54728 6.15473 7.54728 6.54441C7.54728 6.9341 7.49379 7.28558 7.38682 7.59885C7.27985 7.91213 7.11939 8.17956 6.90544 8.40115C6.69914 8.62273 6.44317 8.79465 6.13754 8.91691C5.8319 9.03152 5.48424 9.08883 5.09456 9.08883H3.73066V12H2ZM3.73066 7.70201H4.65903C5.06399 7.70201 5.34288 7.6256 5.4957 7.47278C5.65616 7.31996 5.73639 7.06781 5.73639 6.71633V6.37249C5.73639 6.02101 5.65616 5.76886 5.4957 5.61605C5.34288 5.46323 5.06399 5.38682 4.65903 5.38682H3.73066V7.70201Z" fill="black"/>
</svg>
